<mxfile host="app.diagrams.net" modified="2023-06-15T08:18:19.617Z" agent="Mozilla/5.0 (Windows NT 10.0; Win64; x64) AppleWebKit/537.36 (KHTML, like Gecko) Chrome/114.0.0.0 Safari/537.36" etag="fdX6k8_CJYffNtx33uuv" version="21.3.5" type="github">
  <diagram name="Page-1" id="uDbr7ncSvFRYVL_84d-0">
    <mxGraphModel dx="1434" dy="788" grid="1" gridSize="10" guides="1" tooltips="1" connect="1" arrows="1" fold="1" page="1" pageScale="1" pageWidth="850" pageHeight="1100" math="0" shadow="0">
      <root>
        <mxCell id="0" />
        <mxCell id="1" parent="0" />
        <mxCell id="jdthE1kOP9W3dMnnoPZ4-1" value="Assets" style="childLayout=tableLayout;recursiveResize=0;strokeColor=#98bf21;fillColor=#A7C942;shadow=1;" parent="1" vertex="1">
          <mxGeometry x="10" y="236" width="992" height="175.9999999999999" as="geometry" />
        </mxCell>
        <mxCell id="jdthE1kOP9W3dMnnoPZ4-2" style="shape=tableRow;horizontal=0;startSize=0;swimlaneHead=0;swimlaneBody=0;top=0;left=0;bottom=0;right=0;dropTarget=0;collapsible=0;recursiveResize=0;expand=0;fontStyle=0;strokeColor=inherit;fillColor=#ffffff;" parent="jdthE1kOP9W3dMnnoPZ4-1" vertex="1">
          <mxGeometry width="992" height="26" as="geometry" />
        </mxCell>
        <mxCell id="jdthE1kOP9W3dMnnoPZ4-44" value="Classes" style="connectable=0;recursiveResize=0;strokeColor=inherit;fillColor=#A7C942;align=center;fontStyle=1;fontColor=#FFFFFF;html=1;" parent="jdthE1kOP9W3dMnnoPZ4-2" vertex="1">
          <mxGeometry width="112" height="26" as="geometry">
            <mxRectangle width="112" height="26" as="alternateBounds" />
          </mxGeometry>
        </mxCell>
        <mxCell id="jdthE1kOP9W3dMnnoPZ4-3" value="1" style="connectable=0;recursiveResize=0;strokeColor=inherit;fillColor=#A7C942;align=center;fontStyle=1;fontColor=#FFFFFF;html=1;" parent="jdthE1kOP9W3dMnnoPZ4-2" vertex="1">
          <mxGeometry x="112" width="88" height="26" as="geometry">
            <mxRectangle width="88" height="26" as="alternateBounds" />
          </mxGeometry>
        </mxCell>
        <mxCell id="4UlprSeTJCznxh2azdoy-107" value="2" style="connectable=0;recursiveResize=0;strokeColor=inherit;fillColor=#A7C942;align=center;fontStyle=1;fontColor=#FFFFFF;html=1;" parent="jdthE1kOP9W3dMnnoPZ4-2" vertex="1">
          <mxGeometry x="200" width="88" height="26" as="geometry">
            <mxRectangle width="88" height="26" as="alternateBounds" />
          </mxGeometry>
        </mxCell>
        <mxCell id="4UlprSeTJCznxh2azdoy-121" value="3" style="connectable=0;recursiveResize=0;strokeColor=inherit;fillColor=#A7C942;align=center;fontStyle=1;fontColor=#FFFFFF;html=1;" parent="jdthE1kOP9W3dMnnoPZ4-2" vertex="1">
          <mxGeometry x="288" width="88" height="26" as="geometry">
            <mxRectangle width="88" height="26" as="alternateBounds" />
          </mxGeometry>
        </mxCell>
        <mxCell id="4UlprSeTJCznxh2azdoy-163" value="4" style="connectable=0;recursiveResize=0;strokeColor=inherit;fillColor=#A7C942;align=center;fontStyle=1;fontColor=#FFFFFF;html=1;" parent="jdthE1kOP9W3dMnnoPZ4-2" vertex="1">
          <mxGeometry x="376" width="88" height="26" as="geometry">
            <mxRectangle width="88" height="26" as="alternateBounds" />
          </mxGeometry>
        </mxCell>
        <mxCell id="4UlprSeTJCznxh2azdoy-170" value="5" style="connectable=0;recursiveResize=0;strokeColor=inherit;fillColor=#A7C942;align=center;fontStyle=1;fontColor=#FFFFFF;html=1;" parent="jdthE1kOP9W3dMnnoPZ4-2" vertex="1">
          <mxGeometry x="464" width="88" height="26" as="geometry">
            <mxRectangle width="88" height="26" as="alternateBounds" />
          </mxGeometry>
        </mxCell>
        <mxCell id="4UlprSeTJCznxh2azdoy-156" value="6" style="connectable=0;recursiveResize=0;strokeColor=inherit;fillColor=#A7C942;align=center;fontStyle=1;fontColor=#FFFFFF;html=1;" parent="jdthE1kOP9W3dMnnoPZ4-2" vertex="1">
          <mxGeometry x="552" width="88" height="26" as="geometry">
            <mxRectangle width="88" height="26" as="alternateBounds" />
          </mxGeometry>
        </mxCell>
        <mxCell id="4UlprSeTJCznxh2azdoy-149" value="7" style="connectable=0;recursiveResize=0;strokeColor=inherit;fillColor=#A7C942;align=center;fontStyle=1;fontColor=#FFFFFF;html=1;" parent="jdthE1kOP9W3dMnnoPZ4-2" vertex="1">
          <mxGeometry x="640" width="88" height="26" as="geometry">
            <mxRectangle width="88" height="26" as="alternateBounds" />
          </mxGeometry>
        </mxCell>
        <mxCell id="4UlprSeTJCznxh2azdoy-142" value="8" style="connectable=0;recursiveResize=0;strokeColor=inherit;fillColor=#A7C942;align=center;fontStyle=1;fontColor=#FFFFFF;html=1;" parent="jdthE1kOP9W3dMnnoPZ4-2" vertex="1">
          <mxGeometry x="728" width="88" height="26" as="geometry">
            <mxRectangle width="88" height="26" as="alternateBounds" />
          </mxGeometry>
        </mxCell>
        <mxCell id="4UlprSeTJCznxh2azdoy-135" value="9" style="connectable=0;recursiveResize=0;strokeColor=inherit;fillColor=#A7C942;align=center;fontStyle=1;fontColor=#FFFFFF;html=1;" parent="jdthE1kOP9W3dMnnoPZ4-2" vertex="1">
          <mxGeometry x="816" width="88" height="26" as="geometry">
            <mxRectangle width="88" height="26" as="alternateBounds" />
          </mxGeometry>
        </mxCell>
        <mxCell id="4UlprSeTJCznxh2azdoy-128" value="Total" style="connectable=0;recursiveResize=0;strokeColor=inherit;fillColor=#A7C942;align=center;fontStyle=1;fontColor=#FFFFFF;html=1;" parent="jdthE1kOP9W3dMnnoPZ4-2" vertex="1">
          <mxGeometry x="904" width="88" height="26" as="geometry">
            <mxRectangle width="88" height="26" as="alternateBounds" />
          </mxGeometry>
        </mxCell>
        <mxCell id="jdthE1kOP9W3dMnnoPZ4-6" value="" style="shape=tableRow;horizontal=0;startSize=0;swimlaneHead=0;swimlaneBody=0;top=0;left=0;bottom=0;right=0;dropTarget=0;collapsible=0;recursiveResize=0;expand=0;fontStyle=0;strokeColor=inherit;fillColor=#ffffff;" parent="jdthE1kOP9W3dMnnoPZ4-1" vertex="1">
          <mxGeometry y="26" width="992" height="28" as="geometry" />
        </mxCell>
        <mxCell id="jdthE1kOP9W3dMnnoPZ4-45" value="6A" style="connectable=0;recursiveResize=0;strokeColor=inherit;fillColor=inherit;align=center;whiteSpace=wrap;html=1;" parent="jdthE1kOP9W3dMnnoPZ4-6" vertex="1">
          <mxGeometry width="112" height="28" as="geometry">
            <mxRectangle width="112" height="28" as="alternateBounds" />
          </mxGeometry>
        </mxCell>
        <mxCell id="jdthE1kOP9W3dMnnoPZ4-7" value="" style="connectable=0;recursiveResize=0;strokeColor=inherit;fillColor=inherit;align=center;whiteSpace=wrap;html=1;" parent="jdthE1kOP9W3dMnnoPZ4-6" vertex="1">
          <mxGeometry x="112" width="88" height="28" as="geometry">
            <mxRectangle width="88" height="28" as="alternateBounds" />
          </mxGeometry>
        </mxCell>
        <mxCell id="4UlprSeTJCznxh2azdoy-108" style="connectable=0;recursiveResize=0;strokeColor=inherit;fillColor=inherit;align=center;whiteSpace=wrap;html=1;" parent="jdthE1kOP9W3dMnnoPZ4-6" vertex="1">
          <mxGeometry x="200" width="88" height="28" as="geometry">
            <mxRectangle width="88" height="28" as="alternateBounds" />
          </mxGeometry>
        </mxCell>
        <mxCell id="4UlprSeTJCznxh2azdoy-122" style="connectable=0;recursiveResize=0;strokeColor=inherit;fillColor=inherit;align=center;whiteSpace=wrap;html=1;" parent="jdthE1kOP9W3dMnnoPZ4-6" vertex="1">
          <mxGeometry x="288" width="88" height="28" as="geometry">
            <mxRectangle width="88" height="28" as="alternateBounds" />
          </mxGeometry>
        </mxCell>
        <mxCell id="4UlprSeTJCznxh2azdoy-164" style="connectable=0;recursiveResize=0;strokeColor=inherit;fillColor=inherit;align=center;whiteSpace=wrap;html=1;" parent="jdthE1kOP9W3dMnnoPZ4-6" vertex="1">
          <mxGeometry x="376" width="88" height="28" as="geometry">
            <mxRectangle width="88" height="28" as="alternateBounds" />
          </mxGeometry>
        </mxCell>
        <mxCell id="4UlprSeTJCznxh2azdoy-171" style="connectable=0;recursiveResize=0;strokeColor=inherit;fillColor=inherit;align=center;whiteSpace=wrap;html=1;" parent="jdthE1kOP9W3dMnnoPZ4-6" vertex="1">
          <mxGeometry x="464" width="88" height="28" as="geometry">
            <mxRectangle width="88" height="28" as="alternateBounds" />
          </mxGeometry>
        </mxCell>
        <mxCell id="4UlprSeTJCznxh2azdoy-157" style="connectable=0;recursiveResize=0;strokeColor=inherit;fillColor=inherit;align=center;whiteSpace=wrap;html=1;" parent="jdthE1kOP9W3dMnnoPZ4-6" vertex="1">
          <mxGeometry x="552" width="88" height="28" as="geometry">
            <mxRectangle width="88" height="28" as="alternateBounds" />
          </mxGeometry>
        </mxCell>
        <mxCell id="4UlprSeTJCznxh2azdoy-150" style="connectable=0;recursiveResize=0;strokeColor=inherit;fillColor=inherit;align=center;whiteSpace=wrap;html=1;" parent="jdthE1kOP9W3dMnnoPZ4-6" vertex="1">
          <mxGeometry x="640" width="88" height="28" as="geometry">
            <mxRectangle width="88" height="28" as="alternateBounds" />
          </mxGeometry>
        </mxCell>
        <mxCell id="4UlprSeTJCznxh2azdoy-143" style="connectable=0;recursiveResize=0;strokeColor=inherit;fillColor=inherit;align=center;whiteSpace=wrap;html=1;" parent="jdthE1kOP9W3dMnnoPZ4-6" vertex="1">
          <mxGeometry x="728" width="88" height="28" as="geometry">
            <mxRectangle width="88" height="28" as="alternateBounds" />
          </mxGeometry>
        </mxCell>
        <mxCell id="4UlprSeTJCznxh2azdoy-136" style="connectable=0;recursiveResize=0;strokeColor=inherit;fillColor=inherit;align=center;whiteSpace=wrap;html=1;" parent="jdthE1kOP9W3dMnnoPZ4-6" vertex="1">
          <mxGeometry x="816" width="88" height="28" as="geometry">
            <mxRectangle width="88" height="28" as="alternateBounds" />
          </mxGeometry>
        </mxCell>
        <mxCell id="4UlprSeTJCznxh2azdoy-129" value="2" style="connectable=0;recursiveResize=0;strokeColor=inherit;fillColor=inherit;align=center;whiteSpace=wrap;html=1;" parent="jdthE1kOP9W3dMnnoPZ4-6" vertex="1">
          <mxGeometry x="904" width="88" height="28" as="geometry">
            <mxRectangle width="88" height="28" as="alternateBounds" />
          </mxGeometry>
        </mxCell>
        <mxCell id="jdthE1kOP9W3dMnnoPZ4-10" value="" style="shape=tableRow;horizontal=0;startSize=0;swimlaneHead=0;swimlaneBody=0;top=0;left=0;bottom=0;right=0;dropTarget=0;collapsible=0;recursiveResize=0;expand=0;fontStyle=1;strokeColor=inherit;fillColor=#EAF2D3;" parent="jdthE1kOP9W3dMnnoPZ4-1" vertex="1">
          <mxGeometry y="54" width="992" height="30" as="geometry" />
        </mxCell>
        <mxCell id="jdthE1kOP9W3dMnnoPZ4-46" value="6B" style="connectable=0;recursiveResize=0;strokeColor=inherit;fillColor=inherit;whiteSpace=wrap;html=1;" parent="jdthE1kOP9W3dMnnoPZ4-10" vertex="1">
          <mxGeometry width="112" height="30" as="geometry">
            <mxRectangle width="112" height="30" as="alternateBounds" />
          </mxGeometry>
        </mxCell>
        <mxCell id="jdthE1kOP9W3dMnnoPZ4-11" value="" style="connectable=0;recursiveResize=0;strokeColor=inherit;fillColor=inherit;whiteSpace=wrap;html=1;" parent="jdthE1kOP9W3dMnnoPZ4-10" vertex="1">
          <mxGeometry x="112" width="88" height="30" as="geometry">
            <mxRectangle width="88" height="30" as="alternateBounds" />
          </mxGeometry>
        </mxCell>
        <mxCell id="4UlprSeTJCznxh2azdoy-109" style="connectable=0;recursiveResize=0;strokeColor=inherit;fillColor=inherit;whiteSpace=wrap;html=1;" parent="jdthE1kOP9W3dMnnoPZ4-10" vertex="1">
          <mxGeometry x="200" width="88" height="30" as="geometry">
            <mxRectangle width="88" height="30" as="alternateBounds" />
          </mxGeometry>
        </mxCell>
        <mxCell id="4UlprSeTJCznxh2azdoy-123" style="connectable=0;recursiveResize=0;strokeColor=inherit;fillColor=inherit;whiteSpace=wrap;html=1;" parent="jdthE1kOP9W3dMnnoPZ4-10" vertex="1">
          <mxGeometry x="288" width="88" height="30" as="geometry">
            <mxRectangle width="88" height="30" as="alternateBounds" />
          </mxGeometry>
        </mxCell>
        <mxCell id="4UlprSeTJCznxh2azdoy-165" style="connectable=0;recursiveResize=0;strokeColor=inherit;fillColor=inherit;whiteSpace=wrap;html=1;" parent="jdthE1kOP9W3dMnnoPZ4-10" vertex="1">
          <mxGeometry x="376" width="88" height="30" as="geometry">
            <mxRectangle width="88" height="30" as="alternateBounds" />
          </mxGeometry>
        </mxCell>
        <mxCell id="4UlprSeTJCznxh2azdoy-172" style="connectable=0;recursiveResize=0;strokeColor=inherit;fillColor=inherit;whiteSpace=wrap;html=1;" parent="jdthE1kOP9W3dMnnoPZ4-10" vertex="1">
          <mxGeometry x="464" width="88" height="30" as="geometry">
            <mxRectangle width="88" height="30" as="alternateBounds" />
          </mxGeometry>
        </mxCell>
        <mxCell id="4UlprSeTJCznxh2azdoy-158" style="connectable=0;recursiveResize=0;strokeColor=inherit;fillColor=inherit;whiteSpace=wrap;html=1;" parent="jdthE1kOP9W3dMnnoPZ4-10" vertex="1">
          <mxGeometry x="552" width="88" height="30" as="geometry">
            <mxRectangle width="88" height="30" as="alternateBounds" />
          </mxGeometry>
        </mxCell>
        <mxCell id="4UlprSeTJCznxh2azdoy-151" style="connectable=0;recursiveResize=0;strokeColor=inherit;fillColor=inherit;whiteSpace=wrap;html=1;" parent="jdthE1kOP9W3dMnnoPZ4-10" vertex="1">
          <mxGeometry x="640" width="88" height="30" as="geometry">
            <mxRectangle width="88" height="30" as="alternateBounds" />
          </mxGeometry>
        </mxCell>
        <mxCell id="4UlprSeTJCznxh2azdoy-144" style="connectable=0;recursiveResize=0;strokeColor=inherit;fillColor=inherit;whiteSpace=wrap;html=1;" parent="jdthE1kOP9W3dMnnoPZ4-10" vertex="1">
          <mxGeometry x="728" width="88" height="30" as="geometry">
            <mxRectangle width="88" height="30" as="alternateBounds" />
          </mxGeometry>
        </mxCell>
        <mxCell id="4UlprSeTJCznxh2azdoy-137" style="connectable=0;recursiveResize=0;strokeColor=inherit;fillColor=inherit;whiteSpace=wrap;html=1;" parent="jdthE1kOP9W3dMnnoPZ4-10" vertex="1">
          <mxGeometry x="816" width="88" height="30" as="geometry">
            <mxRectangle width="88" height="30" as="alternateBounds" />
          </mxGeometry>
        </mxCell>
        <mxCell id="4UlprSeTJCznxh2azdoy-130" value="3" style="connectable=0;recursiveResize=0;strokeColor=inherit;fillColor=inherit;whiteSpace=wrap;html=1;" parent="jdthE1kOP9W3dMnnoPZ4-10" vertex="1">
          <mxGeometry x="904" width="88" height="30" as="geometry">
            <mxRectangle width="88" height="30" as="alternateBounds" />
          </mxGeometry>
        </mxCell>
        <mxCell id="jdthE1kOP9W3dMnnoPZ4-14" value="" style="shape=tableRow;horizontal=0;startSize=0;swimlaneHead=0;swimlaneBody=0;top=0;left=0;bottom=0;right=0;dropTarget=0;collapsible=0;recursiveResize=0;expand=0;fontStyle=0;strokeColor=inherit;fillColor=#ffffff;" parent="jdthE1kOP9W3dMnnoPZ4-1" vertex="1">
          <mxGeometry y="84" width="992" height="32" as="geometry" />
        </mxCell>
        <mxCell id="jdthE1kOP9W3dMnnoPZ4-47" value="6C" style="connectable=0;recursiveResize=0;strokeColor=inherit;fillColor=inherit;fontStyle=0;align=center;whiteSpace=wrap;html=1;" parent="jdthE1kOP9W3dMnnoPZ4-14" vertex="1">
          <mxGeometry width="112" height="32" as="geometry">
            <mxRectangle width="112" height="32" as="alternateBounds" />
          </mxGeometry>
        </mxCell>
        <mxCell id="jdthE1kOP9W3dMnnoPZ4-15" value="" style="connectable=0;recursiveResize=0;strokeColor=inherit;fillColor=inherit;fontStyle=0;align=center;whiteSpace=wrap;html=1;" parent="jdthE1kOP9W3dMnnoPZ4-14" vertex="1">
          <mxGeometry x="112" width="88" height="32" as="geometry">
            <mxRectangle width="88" height="32" as="alternateBounds" />
          </mxGeometry>
        </mxCell>
        <mxCell id="4UlprSeTJCznxh2azdoy-110" style="connectable=0;recursiveResize=0;strokeColor=inherit;fillColor=inherit;fontStyle=0;align=center;whiteSpace=wrap;html=1;" parent="jdthE1kOP9W3dMnnoPZ4-14" vertex="1">
          <mxGeometry x="200" width="88" height="32" as="geometry">
            <mxRectangle width="88" height="32" as="alternateBounds" />
          </mxGeometry>
        </mxCell>
        <mxCell id="4UlprSeTJCznxh2azdoy-124" style="connectable=0;recursiveResize=0;strokeColor=inherit;fillColor=inherit;fontStyle=0;align=center;whiteSpace=wrap;html=1;" parent="jdthE1kOP9W3dMnnoPZ4-14" vertex="1">
          <mxGeometry x="288" width="88" height="32" as="geometry">
            <mxRectangle width="88" height="32" as="alternateBounds" />
          </mxGeometry>
        </mxCell>
        <mxCell id="4UlprSeTJCznxh2azdoy-166" style="connectable=0;recursiveResize=0;strokeColor=inherit;fillColor=inherit;fontStyle=0;align=center;whiteSpace=wrap;html=1;" parent="jdthE1kOP9W3dMnnoPZ4-14" vertex="1">
          <mxGeometry x="376" width="88" height="32" as="geometry">
            <mxRectangle width="88" height="32" as="alternateBounds" />
          </mxGeometry>
        </mxCell>
        <mxCell id="4UlprSeTJCznxh2azdoy-173" style="connectable=0;recursiveResize=0;strokeColor=inherit;fillColor=inherit;fontStyle=0;align=center;whiteSpace=wrap;html=1;" parent="jdthE1kOP9W3dMnnoPZ4-14" vertex="1">
          <mxGeometry x="464" width="88" height="32" as="geometry">
            <mxRectangle width="88" height="32" as="alternateBounds" />
          </mxGeometry>
        </mxCell>
        <mxCell id="4UlprSeTJCznxh2azdoy-159" style="connectable=0;recursiveResize=0;strokeColor=inherit;fillColor=inherit;fontStyle=0;align=center;whiteSpace=wrap;html=1;" parent="jdthE1kOP9W3dMnnoPZ4-14" vertex="1">
          <mxGeometry x="552" width="88" height="32" as="geometry">
            <mxRectangle width="88" height="32" as="alternateBounds" />
          </mxGeometry>
        </mxCell>
        <mxCell id="4UlprSeTJCznxh2azdoy-152" style="connectable=0;recursiveResize=0;strokeColor=inherit;fillColor=inherit;fontStyle=0;align=center;whiteSpace=wrap;html=1;" parent="jdthE1kOP9W3dMnnoPZ4-14" vertex="1">
          <mxGeometry x="640" width="88" height="32" as="geometry">
            <mxRectangle width="88" height="32" as="alternateBounds" />
          </mxGeometry>
        </mxCell>
        <mxCell id="4UlprSeTJCznxh2azdoy-145" style="connectable=0;recursiveResize=0;strokeColor=inherit;fillColor=inherit;fontStyle=0;align=center;whiteSpace=wrap;html=1;" parent="jdthE1kOP9W3dMnnoPZ4-14" vertex="1">
          <mxGeometry x="728" width="88" height="32" as="geometry">
            <mxRectangle width="88" height="32" as="alternateBounds" />
          </mxGeometry>
        </mxCell>
        <mxCell id="4UlprSeTJCznxh2azdoy-138" style="connectable=0;recursiveResize=0;strokeColor=inherit;fillColor=inherit;fontStyle=0;align=center;whiteSpace=wrap;html=1;" parent="jdthE1kOP9W3dMnnoPZ4-14" vertex="1">
          <mxGeometry x="816" width="88" height="32" as="geometry">
            <mxRectangle width="88" height="32" as="alternateBounds" />
          </mxGeometry>
        </mxCell>
        <mxCell id="4UlprSeTJCznxh2azdoy-131" value="1" style="connectable=0;recursiveResize=0;strokeColor=inherit;fillColor=inherit;fontStyle=0;align=center;whiteSpace=wrap;html=1;" parent="jdthE1kOP9W3dMnnoPZ4-14" vertex="1">
          <mxGeometry x="904" width="88" height="32" as="geometry">
            <mxRectangle width="88" height="32" as="alternateBounds" />
          </mxGeometry>
        </mxCell>
        <mxCell id="jdthE1kOP9W3dMnnoPZ4-18" value="" style="shape=tableRow;horizontal=0;startSize=0;swimlaneHead=0;swimlaneBody=0;top=0;left=0;bottom=0;right=0;dropTarget=0;collapsible=0;recursiveResize=0;expand=0;fontStyle=1;strokeColor=inherit;fillColor=#EAF2D3;" parent="jdthE1kOP9W3dMnnoPZ4-1" vertex="1">
          <mxGeometry y="116" width="992" height="30" as="geometry" />
        </mxCell>
        <mxCell id="jdthE1kOP9W3dMnnoPZ4-48" value="6D" style="connectable=0;recursiveResize=0;strokeColor=inherit;fillColor=inherit;whiteSpace=wrap;html=1;" parent="jdthE1kOP9W3dMnnoPZ4-18" vertex="1">
          <mxGeometry width="112" height="30" as="geometry">
            <mxRectangle width="112" height="30" as="alternateBounds" />
          </mxGeometry>
        </mxCell>
        <mxCell id="jdthE1kOP9W3dMnnoPZ4-19" value="" style="connectable=0;recursiveResize=0;strokeColor=inherit;fillColor=inherit;whiteSpace=wrap;html=1;" parent="jdthE1kOP9W3dMnnoPZ4-18" vertex="1">
          <mxGeometry x="112" width="88" height="30" as="geometry">
            <mxRectangle width="88" height="30" as="alternateBounds" />
          </mxGeometry>
        </mxCell>
        <mxCell id="4UlprSeTJCznxh2azdoy-111" style="connectable=0;recursiveResize=0;strokeColor=inherit;fillColor=inherit;whiteSpace=wrap;html=1;" parent="jdthE1kOP9W3dMnnoPZ4-18" vertex="1">
          <mxGeometry x="200" width="88" height="30" as="geometry">
            <mxRectangle width="88" height="30" as="alternateBounds" />
          </mxGeometry>
        </mxCell>
        <mxCell id="4UlprSeTJCznxh2azdoy-125" style="connectable=0;recursiveResize=0;strokeColor=inherit;fillColor=inherit;whiteSpace=wrap;html=1;" parent="jdthE1kOP9W3dMnnoPZ4-18" vertex="1">
          <mxGeometry x="288" width="88" height="30" as="geometry">
            <mxRectangle width="88" height="30" as="alternateBounds" />
          </mxGeometry>
        </mxCell>
        <mxCell id="4UlprSeTJCznxh2azdoy-167" style="connectable=0;recursiveResize=0;strokeColor=inherit;fillColor=inherit;whiteSpace=wrap;html=1;" parent="jdthE1kOP9W3dMnnoPZ4-18" vertex="1">
          <mxGeometry x="376" width="88" height="30" as="geometry">
            <mxRectangle width="88" height="30" as="alternateBounds" />
          </mxGeometry>
        </mxCell>
        <mxCell id="4UlprSeTJCznxh2azdoy-174" style="connectable=0;recursiveResize=0;strokeColor=inherit;fillColor=inherit;whiteSpace=wrap;html=1;" parent="jdthE1kOP9W3dMnnoPZ4-18" vertex="1">
          <mxGeometry x="464" width="88" height="30" as="geometry">
            <mxRectangle width="88" height="30" as="alternateBounds" />
          </mxGeometry>
        </mxCell>
        <mxCell id="4UlprSeTJCznxh2azdoy-160" style="connectable=0;recursiveResize=0;strokeColor=inherit;fillColor=inherit;whiteSpace=wrap;html=1;" parent="jdthE1kOP9W3dMnnoPZ4-18" vertex="1">
          <mxGeometry x="552" width="88" height="30" as="geometry">
            <mxRectangle width="88" height="30" as="alternateBounds" />
          </mxGeometry>
        </mxCell>
        <mxCell id="4UlprSeTJCznxh2azdoy-153" style="connectable=0;recursiveResize=0;strokeColor=inherit;fillColor=inherit;whiteSpace=wrap;html=1;" parent="jdthE1kOP9W3dMnnoPZ4-18" vertex="1">
          <mxGeometry x="640" width="88" height="30" as="geometry">
            <mxRectangle width="88" height="30" as="alternateBounds" />
          </mxGeometry>
        </mxCell>
        <mxCell id="4UlprSeTJCznxh2azdoy-146" style="connectable=0;recursiveResize=0;strokeColor=inherit;fillColor=inherit;whiteSpace=wrap;html=1;" parent="jdthE1kOP9W3dMnnoPZ4-18" vertex="1">
          <mxGeometry x="728" width="88" height="30" as="geometry">
            <mxRectangle width="88" height="30" as="alternateBounds" />
          </mxGeometry>
        </mxCell>
        <mxCell id="4UlprSeTJCznxh2azdoy-139" style="connectable=0;recursiveResize=0;strokeColor=inherit;fillColor=inherit;whiteSpace=wrap;html=1;" parent="jdthE1kOP9W3dMnnoPZ4-18" vertex="1">
          <mxGeometry x="816" width="88" height="30" as="geometry">
            <mxRectangle width="88" height="30" as="alternateBounds" />
          </mxGeometry>
        </mxCell>
        <mxCell id="4UlprSeTJCznxh2azdoy-132" value="2" style="connectable=0;recursiveResize=0;strokeColor=inherit;fillColor=inherit;whiteSpace=wrap;html=1;" parent="jdthE1kOP9W3dMnnoPZ4-18" vertex="1">
          <mxGeometry x="904" width="88" height="30" as="geometry">
            <mxRectangle width="88" height="30" as="alternateBounds" />
          </mxGeometry>
        </mxCell>
        <mxCell id="jdthE1kOP9W3dMnnoPZ4-57" value="" style="shape=tableRow;horizontal=0;startSize=0;swimlaneHead=0;swimlaneBody=0;top=0;left=0;bottom=0;right=0;dropTarget=0;collapsible=0;recursiveResize=0;expand=0;fontStyle=1;strokeColor=inherit;fillColor=#EAF2D3;" parent="jdthE1kOP9W3dMnnoPZ4-1" vertex="1">
          <mxGeometry y="146" width="992" height="30" as="geometry" />
        </mxCell>
        <mxCell id="jdthE1kOP9W3dMnnoPZ4-58" value="6E" style="connectable=0;recursiveResize=0;strokeColor=inherit;fillColor=inherit;whiteSpace=wrap;html=1;" parent="jdthE1kOP9W3dMnnoPZ4-57" vertex="1">
          <mxGeometry width="112" height="30" as="geometry">
            <mxRectangle width="112" height="30" as="alternateBounds" />
          </mxGeometry>
        </mxCell>
        <mxCell id="jdthE1kOP9W3dMnnoPZ4-59" value="" style="connectable=0;recursiveResize=0;strokeColor=inherit;fillColor=inherit;whiteSpace=wrap;html=1;" parent="jdthE1kOP9W3dMnnoPZ4-57" vertex="1">
          <mxGeometry x="112" width="88" height="30" as="geometry">
            <mxRectangle width="88" height="30" as="alternateBounds" />
          </mxGeometry>
        </mxCell>
        <mxCell id="4UlprSeTJCznxh2azdoy-112" style="connectable=0;recursiveResize=0;strokeColor=inherit;fillColor=inherit;whiteSpace=wrap;html=1;" parent="jdthE1kOP9W3dMnnoPZ4-57" vertex="1">
          <mxGeometry x="200" width="88" height="30" as="geometry">
            <mxRectangle width="88" height="30" as="alternateBounds" />
          </mxGeometry>
        </mxCell>
        <mxCell id="4UlprSeTJCznxh2azdoy-126" style="connectable=0;recursiveResize=0;strokeColor=inherit;fillColor=inherit;whiteSpace=wrap;html=1;" parent="jdthE1kOP9W3dMnnoPZ4-57" vertex="1">
          <mxGeometry x="288" width="88" height="30" as="geometry">
            <mxRectangle width="88" height="30" as="alternateBounds" />
          </mxGeometry>
        </mxCell>
        <mxCell id="4UlprSeTJCznxh2azdoy-168" style="connectable=0;recursiveResize=0;strokeColor=inherit;fillColor=inherit;whiteSpace=wrap;html=1;" parent="jdthE1kOP9W3dMnnoPZ4-57" vertex="1">
          <mxGeometry x="376" width="88" height="30" as="geometry">
            <mxRectangle width="88" height="30" as="alternateBounds" />
          </mxGeometry>
        </mxCell>
        <mxCell id="4UlprSeTJCznxh2azdoy-175" style="connectable=0;recursiveResize=0;strokeColor=inherit;fillColor=inherit;whiteSpace=wrap;html=1;" parent="jdthE1kOP9W3dMnnoPZ4-57" vertex="1">
          <mxGeometry x="464" width="88" height="30" as="geometry">
            <mxRectangle width="88" height="30" as="alternateBounds" />
          </mxGeometry>
        </mxCell>
        <mxCell id="4UlprSeTJCznxh2azdoy-161" style="connectable=0;recursiveResize=0;strokeColor=inherit;fillColor=inherit;whiteSpace=wrap;html=1;" parent="jdthE1kOP9W3dMnnoPZ4-57" vertex="1">
          <mxGeometry x="552" width="88" height="30" as="geometry">
            <mxRectangle width="88" height="30" as="alternateBounds" />
          </mxGeometry>
        </mxCell>
        <mxCell id="4UlprSeTJCznxh2azdoy-154" style="connectable=0;recursiveResize=0;strokeColor=inherit;fillColor=inherit;whiteSpace=wrap;html=1;" parent="jdthE1kOP9W3dMnnoPZ4-57" vertex="1">
          <mxGeometry x="640" width="88" height="30" as="geometry">
            <mxRectangle width="88" height="30" as="alternateBounds" />
          </mxGeometry>
        </mxCell>
        <mxCell id="4UlprSeTJCznxh2azdoy-147" style="connectable=0;recursiveResize=0;strokeColor=inherit;fillColor=inherit;whiteSpace=wrap;html=1;" parent="jdthE1kOP9W3dMnnoPZ4-57" vertex="1">
          <mxGeometry x="728" width="88" height="30" as="geometry">
            <mxRectangle width="88" height="30" as="alternateBounds" />
          </mxGeometry>
        </mxCell>
        <mxCell id="4UlprSeTJCznxh2azdoy-140" style="connectable=0;recursiveResize=0;strokeColor=inherit;fillColor=inherit;whiteSpace=wrap;html=1;" parent="jdthE1kOP9W3dMnnoPZ4-57" vertex="1">
          <mxGeometry x="816" width="88" height="30" as="geometry">
            <mxRectangle width="88" height="30" as="alternateBounds" />
          </mxGeometry>
        </mxCell>
        <mxCell id="4UlprSeTJCznxh2azdoy-133" value="1" style="connectable=0;recursiveResize=0;strokeColor=inherit;fillColor=inherit;whiteSpace=wrap;html=1;" parent="jdthE1kOP9W3dMnnoPZ4-57" vertex="1">
          <mxGeometry x="904" width="88" height="30" as="geometry">
            <mxRectangle width="88" height="30" as="alternateBounds" />
          </mxGeometry>
        </mxCell>
        <mxCell id="jdthE1kOP9W3dMnnoPZ4-22" value="Assets" style="childLayout=tableLayout;recursiveResize=0;strokeColor=#98bf21;fillColor=#A7C942;shadow=1;" parent="1" vertex="1">
          <mxGeometry x="10" y="100" width="990" height="56" as="geometry" />
        </mxCell>
        <mxCell id="jdthE1kOP9W3dMnnoPZ4-23" style="shape=tableRow;horizontal=0;startSize=0;swimlaneHead=0;swimlaneBody=0;top=0;left=0;bottom=0;right=0;dropTarget=0;collapsible=0;recursiveResize=0;expand=0;fontStyle=0;strokeColor=inherit;fillColor=#ffffff;" parent="jdthE1kOP9W3dMnnoPZ4-22" vertex="1">
          <mxGeometry width="990" height="19" as="geometry" />
        </mxCell>
        <mxCell id="jdthE1kOP9W3dMnnoPZ4-24" value="VR" style="connectable=0;recursiveResize=0;strokeColor=inherit;fillColor=#A7C942;align=center;fontStyle=1;fontColor=#FFFFFF;html=1;" parent="jdthE1kOP9W3dMnnoPZ4-23" vertex="1">
          <mxGeometry width="186" height="19" as="geometry">
            <mxRectangle width="186" height="19" as="alternateBounds" />
          </mxGeometry>
        </mxCell>
        <mxCell id="jdthE1kOP9W3dMnnoPZ4-25" value="Playstation" style="connectable=0;recursiveResize=0;strokeColor=inherit;fillColor=#A7C942;align=center;fontStyle=1;fontColor=#FFFFFF;html=1;" parent="jdthE1kOP9W3dMnnoPZ4-23" vertex="1">
          <mxGeometry x="186" width="205" height="19" as="geometry">
            <mxRectangle width="205" height="19" as="alternateBounds" />
          </mxGeometry>
        </mxCell>
        <mxCell id="jdthE1kOP9W3dMnnoPZ4-26" value="Ipad" style="connectable=0;recursiveResize=0;strokeColor=inherit;fillColor=#A7C942;align=center;fontStyle=1;fontColor=#FFFFFF;html=1;" parent="jdthE1kOP9W3dMnnoPZ4-23" vertex="1">
          <mxGeometry x="391" width="170" height="19" as="geometry">
            <mxRectangle width="170" height="19" as="alternateBounds" />
          </mxGeometry>
        </mxCell>
        <mxCell id="jdthE1kOP9W3dMnnoPZ4-49" value="Laptop" style="connectable=0;recursiveResize=0;strokeColor=inherit;fillColor=#A7C942;align=center;fontStyle=1;fontColor=#FFFFFF;html=1;" parent="jdthE1kOP9W3dMnnoPZ4-23" vertex="1">
          <mxGeometry x="561" width="149" height="19" as="geometry">
            <mxRectangle width="149" height="19" as="alternateBounds" />
          </mxGeometry>
        </mxCell>
        <mxCell id="jdthE1kOP9W3dMnnoPZ4-51" value="Iphone" style="connectable=0;recursiveResize=0;strokeColor=inherit;fillColor=#A7C942;align=center;fontStyle=1;fontColor=#FFFFFF;html=1;" parent="jdthE1kOP9W3dMnnoPZ4-23" vertex="1">
          <mxGeometry x="710" width="155" height="19" as="geometry">
            <mxRectangle width="155" height="19" as="alternateBounds" />
          </mxGeometry>
        </mxCell>
        <mxCell id="jdthE1kOP9W3dMnnoPZ4-53" value="Trip" style="connectable=0;recursiveResize=0;strokeColor=inherit;fillColor=#A7C942;align=center;fontStyle=1;fontColor=#FFFFFF;html=1;" parent="jdthE1kOP9W3dMnnoPZ4-23" vertex="1">
          <mxGeometry x="865" width="125" height="19" as="geometry">
            <mxRectangle width="125" height="19" as="alternateBounds" />
          </mxGeometry>
        </mxCell>
        <mxCell id="jdthE1kOP9W3dMnnoPZ4-27" value="" style="shape=tableRow;horizontal=0;startSize=0;swimlaneHead=0;swimlaneBody=0;top=0;left=0;bottom=0;right=0;dropTarget=0;collapsible=0;recursiveResize=0;expand=0;fontStyle=0;strokeColor=inherit;fillColor=#ffffff;" parent="jdthE1kOP9W3dMnnoPZ4-22" vertex="1">
          <mxGeometry y="19" width="990" height="37" as="geometry" />
        </mxCell>
        <mxCell id="jdthE1kOP9W3dMnnoPZ4-28" value="50 Points" style="connectable=0;recursiveResize=0;strokeColor=inherit;fillColor=inherit;align=center;whiteSpace=wrap;html=1;" parent="jdthE1kOP9W3dMnnoPZ4-27" vertex="1">
          <mxGeometry width="186" height="37" as="geometry">
            <mxRectangle width="186" height="37" as="alternateBounds" />
          </mxGeometry>
        </mxCell>
        <mxCell id="jdthE1kOP9W3dMnnoPZ4-29" value="75" style="connectable=0;recursiveResize=0;strokeColor=inherit;fillColor=inherit;align=center;whiteSpace=wrap;html=1;" parent="jdthE1kOP9W3dMnnoPZ4-27" vertex="1">
          <mxGeometry x="186" width="205" height="37" as="geometry">
            <mxRectangle width="205" height="37" as="alternateBounds" />
          </mxGeometry>
        </mxCell>
        <mxCell id="jdthE1kOP9W3dMnnoPZ4-30" value="100" style="connectable=0;recursiveResize=0;strokeColor=inherit;fillColor=inherit;align=center;whiteSpace=wrap;html=1;" parent="jdthE1kOP9W3dMnnoPZ4-27" vertex="1">
          <mxGeometry x="391" width="170" height="37" as="geometry">
            <mxRectangle width="170" height="37" as="alternateBounds" />
          </mxGeometry>
        </mxCell>
        <mxCell id="jdthE1kOP9W3dMnnoPZ4-50" value="150" style="connectable=0;recursiveResize=0;strokeColor=inherit;fillColor=inherit;align=center;whiteSpace=wrap;html=1;" parent="jdthE1kOP9W3dMnnoPZ4-27" vertex="1">
          <mxGeometry x="561" width="149" height="37" as="geometry">
            <mxRectangle width="149" height="37" as="alternateBounds" />
          </mxGeometry>
        </mxCell>
        <mxCell id="jdthE1kOP9W3dMnnoPZ4-52" value="200" style="connectable=0;recursiveResize=0;strokeColor=inherit;fillColor=inherit;align=center;whiteSpace=wrap;html=1;" parent="jdthE1kOP9W3dMnnoPZ4-27" vertex="1">
          <mxGeometry x="710" width="155" height="37" as="geometry">
            <mxRectangle width="155" height="37" as="alternateBounds" />
          </mxGeometry>
        </mxCell>
        <mxCell id="jdthE1kOP9W3dMnnoPZ4-54" value="250" style="connectable=0;recursiveResize=0;strokeColor=inherit;fillColor=inherit;align=center;whiteSpace=wrap;html=1;" parent="jdthE1kOP9W3dMnnoPZ4-27" vertex="1">
          <mxGeometry x="865" width="125" height="37" as="geometry">
            <mxRectangle width="125" height="37" as="alternateBounds" />
          </mxGeometry>
        </mxCell>
        <mxCell id="4UlprSeTJCznxh2azdoy-106" value="Periods" style="rounded=1;align=center;fillColor=#F1F2F4;strokeColor=none;html=1;whiteSpace=wrap;fontColor=#596780;fontSize=12" parent="1" vertex="1">
          <mxGeometry x="120" y="203" width="790" height="33" as="geometry" />
        </mxCell>
        <mxCell id="4UlprSeTJCznxh2azdoy-180" value="" style="verticalLabelPosition=bottom;verticalAlign=top;html=1;shape=mxgraph.basic.star" parent="1" vertex="1">
          <mxGeometry x="170.53" y="272" width="10.53" height="10" as="geometry" />
        </mxCell>
        <mxCell id="4UlprSeTJCznxh2azdoy-181" value="" style="verticalLabelPosition=bottom;verticalAlign=top;html=1;shape=mxgraph.basic.star" parent="1" vertex="1">
          <mxGeometry x="149.47" y="272" width="10.53" height="10" as="geometry" />
        </mxCell>
        <mxCell id="4UlprSeTJCznxh2azdoy-182" value="" style="verticalLabelPosition=bottom;verticalAlign=top;html=1;shape=mxgraph.basic.star" parent="1" vertex="1">
          <mxGeometry x="140" y="302" width="10.53" height="10" as="geometry" />
        </mxCell>
        <mxCell id="4UlprSeTJCznxh2azdoy-183" value="" style="verticalLabelPosition=bottom;verticalAlign=top;html=1;shape=mxgraph.basic.star" parent="1" vertex="1">
          <mxGeometry x="160" y="302" width="10.53" height="10" as="geometry" />
        </mxCell>
        <mxCell id="4UlprSeTJCznxh2azdoy-184" value="" style="verticalLabelPosition=bottom;verticalAlign=top;html=1;shape=mxgraph.basic.star" parent="1" vertex="1">
          <mxGeometry x="178" y="302" width="10.53" height="10" as="geometry" />
        </mxCell>
        <mxCell id="4UlprSeTJCznxh2azdoy-185" value="" style="verticalLabelPosition=bottom;verticalAlign=top;html=1;shape=mxgraph.basic.star" parent="1" vertex="1">
          <mxGeometry x="160" y="330" width="10.53" height="10" as="geometry" />
        </mxCell>
        <mxCell id="4UlprSeTJCznxh2azdoy-186" value="" style="verticalLabelPosition=bottom;verticalAlign=top;html=1;shape=mxgraph.basic.star" parent="1" vertex="1">
          <mxGeometry x="149.47" y="366" width="10.53" height="10" as="geometry" />
        </mxCell>
        <mxCell id="4UlprSeTJCznxh2azdoy-187" value="" style="verticalLabelPosition=bottom;verticalAlign=top;html=1;shape=mxgraph.basic.star" parent="1" vertex="1">
          <mxGeometry x="167.47" y="365" width="10.53" height="10" as="geometry" />
        </mxCell>
        <mxCell id="4UlprSeTJCznxh2azdoy-188" value="" style="verticalLabelPosition=bottom;verticalAlign=top;html=1;shape=mxgraph.basic.star" parent="1" vertex="1">
          <mxGeometry x="157.47" y="394" width="10.53" height="10" as="geometry" />
        </mxCell>
        <mxCell id="4UlprSeTJCznxh2azdoy-189" value="" style="html=1;verticalLabelPosition=bottom;align=center;labelBackgroundColor=#ffffff;verticalAlign=top;strokeWidth=2;strokeColor=#0080F0;shadow=0;dashed=0;shape=mxgraph.ios7.icons.smartphone;" parent="1" vertex="1">
          <mxGeometry x="1020" y="100" width="170" height="320" as="geometry" />
        </mxCell>
        <mxCell id="4UlprSeTJCznxh2azdoy-190" value="" style="verticalLabelPosition=bottom;verticalAlign=top;html=1;shape=mxgraph.basic.star" parent="1" vertex="1">
          <mxGeometry x="1150" y="236" width="24.09" height="26.5" as="geometry" />
        </mxCell>
        <mxCell id="4UlprSeTJCznxh2azdoy-192" value="" style="verticalLabelPosition=bottom;verticalAlign=top;html=1;shape=mxgraph.basic.star" parent="1" vertex="1">
          <mxGeometry x="1120" y="236" width="24.09" height="26.5" as="geometry" />
        </mxCell>
        <mxCell id="4UlprSeTJCznxh2azdoy-193" value="" style="verticalLabelPosition=bottom;verticalAlign=top;html=1;shape=mxgraph.basic.star;fillColor=#787878;" parent="1" vertex="1">
          <mxGeometry x="1092.95" y="236" width="24.09" height="26.5" as="geometry" />
        </mxCell>
        <mxCell id="4UlprSeTJCznxh2azdoy-194" value="" style="verticalLabelPosition=bottom;verticalAlign=top;html=1;shape=mxgraph.basic.star;fillColor=#666666;" parent="1" vertex="1">
          <mxGeometry x="1065.86" y="236" width="24.09" height="26.5" as="geometry" />
        </mxCell>
        <mxCell id="4UlprSeTJCznxh2azdoy-195" value="" style="verticalLabelPosition=bottom;verticalAlign=top;html=1;shape=mxgraph.basic.star;fillColor=#707070;" parent="1" vertex="1">
          <mxGeometry x="1038.77" y="236" width="24.09" height="26.5" as="geometry" />
        </mxCell>
        <mxCell id="4UlprSeTJCznxh2azdoy-196" value="Evaluation" style="text;html=1;strokeColor=none;fillColor=none;align=center;verticalAlign=middle;whiteSpace=wrap;rounded=0;" parent="1" vertex="1">
          <mxGeometry x="1075" y="100" width="60" height="30" as="geometry" />
        </mxCell>
        <mxCell id="_-OEPbXGlN3NO1fweHB8-3" value="" style="shape=image;verticalLabelPosition=bottom;labelBackgroundColor=default;verticalAlign=top;aspect=fixed;imageAspect=0;image=data:image/png,iVBORw0KGgoAAAANSUhEUgAAA1sAAAJTCAYAAAD+GAzcAAAAAXNSR0IArs4c6QAAAARnQU1BAACxjwv8YQUAAAAJcEhZcwAADsMAAA7DAcdvqGQAACpcSURBVHhe7d0PcJzlneD5n7AJMiFZCUwis+EW+ZKtsQ/mEHvZilSb2bJcTJ3lytQgVbjDKrJLTEgReafuYk1qE9vMnpHZrcRiaoIVbgiaVJGVqCVn+TYZi6qhLM8tWYk7ZqzcwGCqkkW+go0FGNz4D2qw5L4Weg1GamFL9mOj9ueTavX7PP3aVZCH7v6q3/ftikJRAAAAcF5dlt0DAABwHoktAACABMQWAABAAmILAAAgAbEFAACQgNgCAABIQGwBAAAkILYAAAASEFsAAAAJiC0AAIAExBYAAEACYgsAACABsQUAAJCA2AIAAEhAbAEAACQgtgAAABIQWwAAAAmILQAAgATEFgAAQAJiCwAAIAGxBQAAkIDYAgAASEBsAQAAJCC2AAAAEhBbAAAACYgtAACABMQWAABAAmILAAAgAbEFAACQgNgCAABIQGwBAAAkILYAAAASEFsAAAAJiC0AAIAExBYAAEACYgsAACABsQUAAJCA2AIAAEhAbAEAACQgtgAAABIQWwAAAAmILQAAgATEFgAAQAJiCwAAIAGxBQAAkIDYAgAASEBsAQAAJCC2AAAAEhBbAAAACYgtAACABMQWAABAAvOOrdzzfbHt6w2xvKIiKoq35fUtseGhochlj58ydP/U46VvLdH7SrYjAABAGakoFGXbZ23k8dZoWNcbS766MTbd0RS1VbkYebIntv2gL8bu3BnDjzVHTbbvZGw1PL0pdn63MaqyuQ9Ux8r6uqipzIYAAABlYu6xdagv7r6pLca2DkT3N1bE6Z2U23V3VDfvi+3D+2LjzVNz78XWcz1x8Il17wcYAABAuZv7YYRLm2PH0GB0TQutSVVfbIzmGI7B/aPZTOam2vdDK5/LRT7bBgAAKFfzOmer8obaEocEFo1P3VUunrqPGI2Dv57ayv2yM1q+UBFLqqtjScWyWLmuK4ann+AFAABQJs7r1QhHnuqJvmiOtfUfHDCYn/wYq39jtP4wovWRfbFveE/s/H5D5B/fELes6Yzhqd0AAADKyrwukFFK7qnN0fT73bHsLwZj51212exo9N6+LFqjJ156Yl2cmp008tOWWP61vmj7+eHY8ZWSn5Odld/+9rdx8ODBbAQAAPDxcB5iKxfDD62Plj8ajBUP9sfO/7Xuw+dy5XPFPaqiavoJXvmBaF+yOjq3DkZhS302CQAAUB7O7TDC3HB0/sGKuOWBXKzrH47d00NrUmWJ0JpUWRsrbi3ePzcS0y6nAQAAsODNO7byv+qMtStuie3H1see5/ZEx5p5Xti9slSJAQAALGzziq38M9uisa49Dt+1J/YPdETj0uyBafLP98bdjRui71A2cbr8SOx/KqKu7oPLwgMAAJSLecTWSPRs3RxDX+2JngcaS18CPlNZUxmxtyu2Pzw047u1Rn7aGZ1RH62r6rIZAACA8jH3C2SM9kXrspYY3bIzNq0qnVrVX2iIus9NHR448nhrNKzrjSVf3Rib7miK2srRGN7VHdt/PBC1WwdjYEv9zPO8AAAAFri5x9YrvdFyfWv0ZcNSmnsPxs47Pjg4cHRvV3Q83BP9PxuKkaiJFavWxvo/3hRta2qFFgAAUJbO2/dsAQAA8IFzu/Q7AAAAJYktAACABMQWAABAAmILAAAgAbEFAACQgNgCAABIQGwBAAAkILYAAAASEFsAAAAJiC0AAIAExBYAAEACYgsAACABsQUAAJCA2AIAAEhAbAEAACQgtgAAABIQWwAAAAmILQAAgATEFgAAQAJiCwAAIAGxBQAAkIDYAgAASEBsAQAAJCC2AAAAEhBbAAAACYgtAACABMQWAABAAmILAAAgAbEFAACQgNgCAABIQGwBAAAkILYAAAASEFsAAAAJiC0AAIAExBYAAEACYgsAACABsQUAAJCA2AIAAEhAbAEAACQgtgAAABIQWwAAAAmILQAAgATEFgAAQAJiCwAAIAGxBQAAkIDYAgAASEBsAQAAJCC2AAAAEhBbAAAACVQUirJtAADgDP7LuyfiqWPH4+/z72Qzl56rLrssGq+6Mv75J6+MT1RUZLNMJ7YAAOAs7TpyNAaOvZ2NuHrRothwTXVcu3hRNsPpHEYIAABn4T+/PSa0pnlzYiIefvNwnPD5TUliCwAAziBfjIn/eORoNuJ0r49PxNPHx7IRpxNbAABwBr8ay8fYSZ/ezOaZt8VWKWILAADO4LXxiWyLUg6Oj2dbnE5sAQDAGYyHT7WYO7EFAACQgNgCAABIQGwBAAAkILYAAAASEFsAAAAJiC0AAIAExBYAAEACYgsAACABsQUAAJCA2AIAAEhAbAEAACQgtgAAABIQWwAAAAmILQAAgATEFgAAQAJiCwAAIAGxBQAAkIDYAgAASEBsAQAAJCC2AAAAEhBbAAAACYgtAACABMQWAABAAmILAAAgAbEFAACQgNgCAABIYM6xNbq3Kzb8wcpYVlERFRXLYmXj3bFt1/7IZ49Plz/QH13fWhsrl03uXxHL61ui/SdDMTqe7QAAAFCG5hBb+Ri6vyGWNXbE/pr10dm/J/b0d8b6z4/EjuaV0fhvh2cEV/6ZbdFYuzY6D9TG+gd3x56B3dHRVBn932uIuubOGD6W7QgAAFBmKgpF2fZHyv+qM9bW7Yz6v+qPjlurstkpwz+4JW75TkPsPrwjmk49dKg/Nty0NvZ9azD6t9THh/7Egd5orW+NkT/aFwPfrYvKbBoAAD6O+o4cjb3H3s5GlPLQdZ/NtjjlrD/Zqrx5Y+z8dU9snhZak+q+3FL82RXDL06NJ43s6oyu0fXRfu+00Jp0w7po/3ZdDH2vOwZy2RwAAEAZmdM5W1Wfry39KdT4WPFHTcTiqWExtWLoyYGI2xqjbmk2NU3dqpbin+iKweezCQAAgDJyHq5GmI+Bn3dH3LwhGm/MpmI0RnYV7+pqo3ZqYqaa2mgo3u1/eXRqDAAAUEbO+pyt0vKx/8fro/GeoVg/8EJ0rMo+98r1x4bqtdG1dTAKW+qn5qZ7pTdarm+NwQf2xcHv1mWTc/fqq6/Ga6+99t72f/lEZfxqyZXxxuL3P2K75Hx6YiL++/zbsSI/+WkjAADnw9Anr4rnKq/MRpRyzxtT78n5wPxja3wk+r5zd7T96Vi0/LwndnzltM+wLmBsnThxIvInxqPn+Nvx98V7plx92WVx51VL4h8uWpTNAAAwX78Yy8fT+XezEaV8v/rT2RanzC+2DvTFhjtaouvQ+nh01/ZYf+P0S2AMxbaKhth8FrEVvQdj5x012eT8dL+Zi1/l38lGnHJ1MbS2fOaaWFxRkc0AADAfrkZ4Zq5GONOcz9ka+cWGaKhtif4Vj8YLw4+WCK1JNVF7W/FueCRGpiZmGh2JweLdiuvPLbRyExNCaxZvFv/dPPP2bF83DQAApDSn2Bp5vDUa/mBn1D7yQrzwF+tjxVXZAzPURv2axohdAzF8KJuaZnjvzhiNtmh4/6Ia8/Pa+ES2RSl/lxdbAABwMZx9bOUHovvbvbFsS190f2PFGb+IuPa2jdFW0x3bHx6KGV+ldaA3tj84HPUPrv/gS5Dn6ejJk9kWpRzx7wcAAC6Ksz9n62+2xbIvbo61P9oT634nm5tm2U2NseK079XKP7MtGus3x+iatmi7synqaiJGf9kTHT/qjcNf3B79vRujbtZPx87Os2P5eOzwW9mI6a5dvCju+8wsX3YGAMBZcc7WmTlna6azj61iOFUUw+mjdAwVYtOXskEmf6A/ur/fFV27+mP/aETtl5qj+Z72aL+zPmrOwxXaxdZHE1sAAOdObJ2Z2Jpp/pd+/5gQWx9NbAEAnDuxdWZia6Y5X40QAACAMxNbAAAACYgtAACABMQWAABAAmILAAAgAbEFAACQgNgCAABIQGwBAAAkILYAAAASEFsAAAAJiC0AAIAExBYAAEACYgsAACABsQUAAJCA2AIAAEhAbAEAACQgtgAAABIQWwAAAAmILQAAgATEFgAAQAJiCwAAIAGxBQAAkIDYAgAASEBsAQAAJCC2AAAAEhBbAAAACYgtAACABMQWAABAAmILAAAggYpCUba9ID07lo/HDr+VjZju2sWL4r7PLM1GALCwnCi+TXlnYb9VOSeVFRWxuHjj4us7cjT2Hns7G1HKQ9d9NtviFLFV5sQWAAvRoYmJ+Msjx+Jvi6/zl7p/9sklseZTV8WnL3NA0sUkts5MbM3kv1oA4GPl5RMnYvvrbwqtzC+Pj8UPXn8jXh+fyGaAhUJsAQAfG/lCIbreyMXxkyezGSblJk7G//5mLsYv4UMqYSESWwDAx8bg8TGhNYvXxsfj7/LvZCNgIRBbAMDHxovviImPMvLuiWwLWAjEFgDwsXHEp1of6S3/fmBBEVsAwMfGuFOSPtLkpfCBhUNsAQAAJCC2AAAAEhBbAAAACYgtAACABMQWAABAAmILAAAgAbEFAACQgNgCAABIQGwBAAAkILYAAAASEFsAAAAJiC0AAIAExBYAAEACYgsAACABsQUAAJCA2AIAAEhAbAEAACQgtgAAABIQWwAAAAmILQAAgATEFgAAQAJiCwAAIAGxBQAAkIDYAgAASEBsAQAAJCC2AAAAEhBbAAAACYgtAACABMQWAABAAmILAAAgAbEFAACQgNgCAABIQGwBAAAkILYAAAASEFsAAAAJiC0AAIAExBYAAEACYgsAACABsQUAAJCA2AIAAEhAbAEAACQgtgAAABIQWwAAAAmILQAAgATEFgAAQALnGFu5GHmyM1q+UBEV9w9lcx82dH/xsYrZbi3R+0q2IwAAQBmZV2zlXxmI7u+0xspl1bG8qT36fpM9MJtbN8XOgT2xZ8ZtczQuzfYBAAAoI/OKrdzTXbH5yVw0fm93vHR4MDqy+VlVrYyGVY3ROONWFzWV2T4AAABlZF6xVXPHzjj43O7Y8a+aorYqm/woN9VGTbaZz+Uin20DAACUq8QXyBiNg7+e2sr9curcriXV1bGkYlmsXNcVw7mpxwAAAMpN4tiKyE9+jNW/MVp/GNH6yL7YN7wndn6/IfKPb4hb1nTG8NRuAAAAZaWiUJRtz9NQbKtoiM1bB6OwpT6bO2U0em9fFq3REy89sS5qs9lJIz9tieVf64u2nx+OHV85m2MRS/tl7q34D287MHE2V1dEtC0q/gCYxUvFV4FnTxbinWx8KVpZURG/e1nEJ7IxF8/DE4U4dI7vTMrZPy6+pP9PXtcvir8qPk/+3yezASVtWWxtTpc4toryuchFVVRNvxBGfiDal6yOztn+3Fn6vw69Ef/Hu+PZiOmqi//3fv2EGAVmGouK+MXiT8TLlyU/yGFBuLL4fPmV8XfjcwXvpi6mn1xeGW8W45fS/tuTE/GHxXXKhffXiy6Pv120OBtRysZ3x7ItTkkfW7Maie7fXx53V/XEwSfWvX8Bjbl6diwfjx1+Kxsx3bWLF8V9n3F9feDD8sWn/s7X34zRcb+sOt3lxTf537qmKj7/CZ9xXSwdr70Rr1qXs7qx8or45tXzPyKI+es7cjT2Hns7G1HKQ9d9NtvilIv/68xK134HuND+6uhxoVXCiWKE9uaOZCMAODdJYyv/fG/c3bgh+g5lE6fLj8T+pyLq6j64LDwAF8bfjjm8eDavj0/E4YmJbAQA85c0tionv7F4b1dsf3hoxndrjfy0MzqjPlpX1WUzAFwIk4cQvikmPtIb/v0AcB7MK7ZyLw7EwN5Tt30xMjn58r7T5vbHe1+htbQ5NvWui5H7GmLl7e3Rvav42JO90XnP6mi4pz/qt3ZG282TOwJwobx90gUgzuTdcz2dGQCK5hVb+3+2OlY3nrptiO7JyR9vOG2uL/a/t2dE7R09MTywI5piMLY1Fx9r2hjdv6mN9v6XYmBLfThjCwAAKEfziq36LYWYvIjh7LdNcfp1CWtWtcWOJwbjpfceOxgvDDwaG9fUCi0AAKBsJT1nCwAA4FIltgAAABIQWwAAAAmILQAAgATEFgAAQAJiCwAAIAGxBQAAkIDYAgAASEBsAQAAJCC2AAAAEhBbAAAACYgtAACABMQWAABAAmILAAAgAbEFAACQgNgCAABIQGwBAAAkILYAAAASEFsAAAAJiC0AAIAExBYAAEACYgsAACABsQUAAJCA2AIAAEhAbAEAACQgtgAAABIQWwAAAAmILQAAgATEFgAAQAJiCwAAIAGxBQAAkIDYAgAASEBsAQAAJCC2AAAAEhBbAAAACYgtAACABMQWAABAAmILAAAgAbEFAACQgNgCAABIQGwBAAAkILYAAAASEFsAAAAJiC0AAIAExBYAAEACYgsAACABsQUAAJCA2AIAAEhAbAEAACQgtgAAABIQWwAAAAmILQAAgATEFgAAQAJiCwAAIAGxBQAAkIDYAgAASEBsAQAAJCC2AAAAEhBbAAAACYgtAACABMQWAABAAmILAAAgAbEFAACQgNgCAABIQGwBAAAkILYAAAASEFsAAAAJiC0AAIAExBYAAEACYgsAACABsQUAAJCA2AIAAEhAbAEAACQgtgAAABIQWwAAAAmILQAAgATEFgAAQAJiCwAAIAGxBQAAkIDYAgAASEBsAQAAJCC2AAAAEhBbAAAACcwztnIx8mRntHyhIiruH8rmSssf6I+ub62NlcuK+1ZUxPL6lmj/yVCMjmc7AAAAlKE5xVb+lYHo/k5rMZyqY3lTe/T9JntgFvlntkVj7droPFAb6x/cHXsGdkdHU2X0f68h6po7Y/hYtiMAAECZmVNs5Z7uis1P5qLxe7vjpcOD0ZHNl3SoP9pv2xyxdTD29e+IjXc0ReOqpli3pSdeGOqJxmfbo+2h4chnuwMAAJSTOcVWzR074+Bzu2PHv2qK2qpschYjuzqja3R9tN9bHzN2vWFdtH+7Loa+1x0DuWwOAACgjCS6QMZIDD05EHFbY9QtzaamqVvVEjXRFYPPZxMAAABlJFFsjcbIruJdXW3UTk3MVFMbDcW7/S+PTo0BAADKSEWhKNueo6HYVtEQm7cORmFLfTaXyfXHhuq10VXqsVNe6Y2W61tj8IF9cfC7ddnk3P3Vf/1t/KJiUTZiuk+Nj8cfjv7XbAQQcXzR4uhb9g+zEaWsPvRaXJcfy0ZcSD+vuS7eWnx5NmK6zxXX5ari+uTC+5uq6th/1aezEaXc+cr/l21xyoKPrWfH8vHY4beyEdNdu3hR3PeZWY7lBC5Jb05MxJ+8eigbUcq911TFyiuuyEZcSB2vvRGvjvt+mNncWHlFfPPqM5w4TxJ9R47G3mNvZyNKeei6z2ZbnJLmMMJi+S/LNs+k4Yaz3RMAAGDhSHTOVk3U3la8Gx6JkamJmUZHYrB4t+L6mqkxAABAGUkUW7VRv6YxYtdADM9ypMrw3p0xGm3RcGM2AQAAUEYSxVYxt27bGG013bH94aGY8VVaB3pj+4PDUf/g+mhy2DEAAFCG5hRbuRcHYmDvqdu+qUMEX9532tz+D8JqaVNs39URcV9D3NK0ITof7y8+3h+997fGyvrWGPji9uj6xvwvjAEAAPBxNqfY2v+z1bG68dRtQ3RPTv54w2lzfbH/vT2nVH5pUwyM7I6NN4xE97fXFh9fG5v789H0wGAM922MuquyHQEAAMrMnGKrfkshJq8UP/ttU0y/0HvlDU3R9qPd8cLBqX1eGtoZ2++qj5rF2Q4AAABlKNk5WwAAAJcysQUAAJCA2AIAAEhAbAEAACQgtgAAABIQWwAAAAmILQAAgATEFgAAQAJiCwAAIAGxBQAAkIDYAgAASEBsAQAAJCC2AAAAEhBbAAAACYgtAACABMQWAABAAmILAAAgAbEFAACQgNgCAABIQGwBAAAkILYAAAASEFsAAAAJiC0AAIAExBYAAEACYgsAACABsQUAAJCA2AIAAEhAbAEAACQgtgAAABKoKBRl2wvSs2P5eOzwW9mI6a5dvCju+8zSbMTFNDo+HsNj70Sh+L9L0ScqKuJLVy6Jqy7zO56L7c2JifiTVw9lI0q595qqWHnFFdmIC6njtTfi1eLzJaXdWHlFfPPqqmzEhdR35GjsPfZ2NqKUh677bLbFKWKrzImti+/YyZPxeO5I/F3+nWzm0nV5Mbh+75NXxh9++qpshotBbJ2Z2Lp4xNZHE1sXj9g6M7E1k18xQ0JHJk5G5+tvCq3MiUIh9hw7Hn/+Zi6bAQAoX2ILEvr3ubfi0MRENuKU54vxufe43w4CAOVNbEEiuWJkvfjOu9mI6f7aoRgAQJkTW5DIgRPjl+ilMM7O5HlDx0+ezEYAAOVHbEEihx0+eEaHJ8QWAFC+xBYksii7Z3aegACAcua9DgAAQAJiCwAAIAGxBQAAkIDYAgAASEBsAQAAJCC2AAAAEhBbAAAACYgtAACABMQWAABAAmILAAAgAbEFAACQgNgCAABIQGwBAAAkILYAAAASEFsAAAAJiC0AAIAExBYAAEACYgsAACABsQUAAJCA2AIAAEhAbAEAACQgtgAAABIQWwAAAAmILQAAgATEFgAAQAJiCwAAIAGxBQAAkIDYAgAASEBsAQAAJCC2AAAAEhBbAAAACYgtAACABMQWAABAAmILAAAgAbEFAACQgNgCAABIQGwBAAAkILYAAAASEFsAAAAJiC0AAIAExBYAAEACYgsAACABsQUAAJCA2AIAAEhAbAEAACSQPLaG7q+IiorZbi3R+0q2IwAAQBm5MJ9s3bopdg7siT0zbpujcWm2DwAAQBm5MLFVtTIaVjVG44xbXdRUZvsAAACUkQsTWzfVRk22mc/lIp9tAwAAlKvEsTUaB389tZX7ZWe0fKEillRXx5KKZbFyXVcM56YeAwAAKDfJP9nKT36M1b8xWn8Y0frIvtg3vCd2fr8h8o9viFvWdMbw1G4AAABlpaJQlG0nMBq9ty+L1uiJl55YF7XZ7KSRn7bE8q/1RdvPD8eOr1Rls3M38OprsWsi4T/CAvcPTk7EuiM+QrwYnr+iMp5e8slsRCm3H83FNRMT2YgL5ehll8W//3R1NqKUtcePxH9z4kQ24kJ6/FNVkVu0KBsx3Q0n3o01x49mIy6kweJr+v9bfG1ndvfm3si2OCVxbBXlc5GLqqiavjbzA9G+ZHV0bh2Mwpb6bHLunjl6LHqOHs9GTHfNZRWx8ZNLshEX0tC74/GLd97NRpTyR5+sjJriG38urNzJQnz/+Fg2opR/ueSK+MeLveG/GP70eD5eP3kyGzHdiuK6vLO4Prnwdhdf0/9z8bWd2T3wqSuzLU5JH1uzGonu318ed1f1xMEn1r1/AY25enYsH48dfisbMd21xSfl+z7j+voXw386/nb87C2/ffwo3732mrju8sXZiAvlzYmJ+JNXD2UjSrn3mqpYeYU3tBdDx2tvxKvj3tDO5sbKK+KbV8//iCDmr+/I0dh77O1sRCkPXffZbItTLv6vlCt9HAsAAJSfpLGVf7437m7cEH2lfoGaH4n9T0XU1X1wWXgAAIBykTS2Kie/sXhvV2x/eGjGd2uN/LQzOqM+WlfVZTMAAADlI+1hhEubY1Pvuhi5ryFW3t4e3bsGYuDJ3ui8Z3U03NMf9Vs7o+3mbF8AAIAykvycrdo7emJ4YEc0xWBsa14dq5s2RvdvaqO9/6UY2FIfztgCAADK0QW5QEbNqrbY8cRgvFQoRKFwMF4YeDQ2rqkVWgAAQNm6ILEFAABwqRFbAAAACYgtAACABMQWAABAAmILAAAgAbEFAACQgNgCAABIQGwBAAAkILYAAAASEFsAAAAJiC0AAIAExBYAAEACYgsAACABsQUAAJCA2AIAAEhAbAEAACQgtgAAABIQWwAAAAmILQAAgATEFgAAQAJiCwAAIAGxBQAAkIDYAgAASEBsAQAAJCC2AAAAEhBbAAAACYgtAACABMQWAABAAmILAAAgAbEFAACQgNgCAABIQGwBAAAkILYAAAASEFsAAAAJiC0AAIAExBYAAEACYgsAACABsQUAAJCA2AIAAEhAbAEAACQgtgAAABIQWwAAAAmILQAAgATEFgAAQAJiCwAAIAGxBQAAkIDYAgAASEBsAQAAJCC2AAAAEhBbAAAACYgtAACABMQWAABAAmILAAAgAbEFAACQgNgCAABIQGwBAAAkILYAAAASEFsAAAAJiC0AAIAExBYAAEACYgsAACABsQUAAJCA2AIAAEhAbAEAACQgtgAAABIQWwAAAAmILQAAgATEFgAAQAJiCwAAIAGxBQAAkIDYAgAASEBsAQAAJCC2AAAAEhBbAAAACYgtAACABMQWAABAAmILAAAgAbEFAACQgNgCAABIQGwBAAAkILYAAAASEFsAAAAJJI+t/IH+6PrW2li5rCIqKipieX1LtP9kKEbHsx0AAADKUNLYyj+zLRpr10bngdpY/+Du2DOwOzqaKqP/ew1R19wZw8eyHQEAAMpMutg61B/tt22O2DoY+/p3xMY7mqJxVVOs29ITLwz1ROOz7dH20HDks90BAADKSbLYGtnVGV2j66P93vqoyubed8O6aP92XQx9rzsGctkcAABAGUkUWyMx9ORAxG2NUbc0m5qmblVL1ERXDD6fTQAAAJSRRLE1GiO7ind1tVE7NTFTTW00FO/2vzw6NQYAACgjFYWibPv8yfXHhuq10bV1MApb6rPJaV7pjZbrW2PwgX1x8Lt12eTc7Rl9Nf7Pk9mAGf7BxETcfvhQNuJC+vvKK2Pwqk9lI0ppyb0RV4+7NOmFduyyRfH41bMcdsB7/scjubj+3XeyERfSz6qvidyixdmI6f5RcV3+fnF9cuE988lPxXNLrsxGlPKNQ69mW5yy4GPrwIEDceTIkWwEAADw8ZAmtmIotlU0xOaziK3oPRg776jJJgEAAMpDonO2aqL2tuLd8EiMTE3MNDoSg8W7FdcLLQAAoPwkiq3aqF/TGLFrIIZnOV1oeO/OGI22aLgxmwAAACgjyb5nq/a2jdFW0x3bHx6KGadxHuiN7Q8OR/2D66NpxpdwAQAALHyJztmakn9mWzTWb47RNW3RdmdT1NVEjP6yJzp+1BuHv7g9+ns3Rt1V2c4AAABlJGlsTcof6I/u73dF167+2D8aUful5mi+pz3a76yPGld2BQAAylTy2AIAALgUJTtnCwAA4FImtgAAABIQWwAAAAmILQAAgATEFgAAQAJiCwAAIAGxtdCNj8bAQxuipX55VFRUFG/Lo+H2DdG1dzTbYRbPbItl7+2/Orp/k83BeTa6tys23N4Qy99baxWxvL4lNjw0EKPj2Q6Z0cdbsvU7/VZcz1/fFn0v5rM94fw427V5utyv+mLb11fHymXZ+ly2MlYX12fvM2d4voWzNYfX9NmeN5fdtDpavtUV/b/JZXvCeTSHNTp0/8z1+aHb7b1xKTx7iq2F7NhwdDbXxeoH9kd1c0fsHtgTe/o2RePSkehsbIgNv5j9iXboqR0x+tWNsfHWgej6xXA2C+dLPob/dG3UNXbE/qqW6Ogvrs2BnbHp1mUx8sPV0fBH/TFzdTbGpicm9/vgtru3LVbu3xwtq9ZH74FsNzgn81mbuRi4b3WsqGuJ7tEVsf7B3VPr88G2qDvWHa31xefhfztU/JvhHMzrNX368+bu6LynLiqf7oi1X1gRq+8bKLGeYZ7mtUbXx4731+e023caoyrbq6xNfqkxC9O+B+sLcfOmwp7D2cTpjo5lG6UMFjpqotDce7D4d9QV/47thX3ZI3BeDG8v1EddYdNAicV5YqwwdiLbzhzsbS5ENBd6Xs4mTvf6zsL64lNV3YNWKefBHNfmpJceaSquz/pCW99L2cyHvfTYukJN8e/cPpxNwDzM9TX9I583i6bWZRSaHim9bmGu5rpGB7dGcY12FN91Xtp8srVQ5fqj+9tDsf6+9mg89WuBfC5yp361elVltjFTfu/u2DHaHC1fLr49WNUadb/qiYFfZQ/COctF/yPtMXTX5mhf9f7ijNypxbm4MioXT22elaV10XhbxPAxnxtwruaxNg/1xbZ7+qNuS2dsv602m/yw2js7o6+/J9bfnE3AXJ3Da/psau/sjp4/ron+e7ZF36FsEuYrwRq9VIither5weiK5misq4rc33RF603LomJJdVQvqYjlTe3RO+s5LvkYfKo7Rtc0Rf3nisObG6P15uHoecqhhJwv+2Pw4YjmVXVRlRuOrnUrY1nFkqiuXhIVX1gb7Y/vn9vhVvmR2LcroulzNdkEzNfc1+bo3p3RHXXR2lwfs7+VqIn6NSsujcNhSGPer+kfpTIa17UXV293DAw5mJBzlGSNXhrE1gI1+vL+4s/aqBrtjKY7BuKWrT2xb3hf7OnbEY2HO6N1RUvpC1/kB2PgJ6PR9NXG4p+eVFd8Mq6L4d6BkFucF6+MFN/SFlfn0tHoXNMSA3Ud0VNcm/sGdsaOLx+OzuIb3JYfj0ztO81YLhe502+jw9H7nc3Rd1fxz95V+lMFOGvzWJsjL/YWfzZFg0+tSGjer+ln8jvF1/ji3c7nSz/nwtma/xodi8PTX9uz2yWTZ9nhhCww751rFU2FpjXNhZ6RbPKUkZ7CupooxL27C9MPqx0b2FSoicbCo7/OJiYNdTjfgPNneHuhbvI8gTVNhebHpp8r8FKh586a4tptK+w+bXFOnXsweWx3idvvrC/sGDqY7QnnYM5r82Ch56uT69A5B6Q1n9f0M52zNWWw0DH5PLrVCubczGeNTp2zNdvtTGu3fPhka0Hrj/4b26L5hmx4yg3rYsM3ivcPD773W9wP5GPwyW0xeuu6aPx8NjXpS42xocahhJxf/U+uiLavTv80qjbW3bO+eN8Vg89PzXygOR597nAcPvzB7aXhPbH7O1XRd9uyWP71vvC7Wc6Hua9NuBDm+poOF9p81uim2H3a6/oHt+5onjyd5RIgthaoZTVTbxSa61aWPI+gdkVz8ef+GHllavye/GD0/yBixZdro/pDH+XWxorJCxA82B9D2a4wb0uXTR2i+tVbYmWpxXnDymJWFVfnyzO/XWNJVVVUnXarvbkxmu7aHrt/timqftIW3XsdE845mPParInamybvx94bQSrzek0/G/mxOFy8q1k8+xmHcDbmv0aXRPW01/ZTt0tlVYqtBarm+hVTG+Ol3wSMlfhizvzT/dFZvN9/3+qorq4+7bYsWh4uPjC6IwaeeW9XmL/PFeN98r64Bkuuzo/40tjZVP6ztdEUo9H9jN/rcg7msTZrf2dd8Wd/DJ7hiq15V8vkHMznNf2svDgcA8W7lhun3ijDfCVbo5cAsbVQ3dgQbcW7vudGSpxgmI+R5/qK/2XcEive/4g2FwO7iql1c0cMlvo49+DO4t83Gjue8tkW52pFNNxbvNu1L0ZKvP/M/3pf9EVN3PIFVxfkQpv72qxZ1RLrYzh6+j7iS4vzQ9H55dpofXzmp7VwVub8mn428jHQu724etdHY71rZXKOkqzRS4PYWqiqGqN1a13EDzqj+8Vs7pQDfdH1g4i6bzdFcY8pucHof7g497WmqC/xUW5VTVM0f7cmRn+0OwZmfUcBZ6MqGr/WUVx7ndH5k+mfRI1E348no789mv6HbOos5J+avPy2385yruaxNpc2x6ZHmmL4/o3RvqvUWYO5GPrBxtg82hKtt/oFAvM019f0szDy0/XR+oPRaHpkUzQvzSZhvhKs0UvFon9TlG2zoCyO6//J78ble/91tP/Z0/FK4fJY/O7r8dxfbosN/3Jz9N/YEX0/vD2u/8TU3rmn/ixaHh+P9n/3b6Kh5PuBxbHsslx0d3VH9eoN0Vg7l2+dhQ9b/Ll/Gr+7aCD+dfufxdO/rYjLF+fj9ef7Y1vbv4jNu2+Kjl1dcfvnPlhjx55/Ijp35mJF/fURr43EyIFTt+EYeHhz/M/3/kWMr9oRnQ/8XizL/gzMx1zX5qTqf7I2fu9kX3S0/S/xo//nUIxfFpE/9HIM/3V3dG5cHxt+Uh2bft4d3/zvnBfDfM3tNX1S6efN/TH0l38e/+7ufxF3//lI/NMt/zH+Q/stl8y5MaQ09zX6yn/636J7b23U/fOr4tj7r+un3/JRXXtt+a/P7KqELFQnDhb2/LCt0HTj5CWLoxCfry+s37qz8MLR7PH3HC7svKv42K2PFqZf7PhDxvYUNtVEoea7ewpj2RSci4MDOwptX1lRKPZ9cX3WFurv6ijs3D9zdX3Upd9rbmwqtP1wT+HgiWxnOA/Odm2e7vBzOwsddzUWVkxe4njyzxWfb5vv3VHY45sJOF/O6jV9ymzPmzU3NhbW//Gjhd2/nv7lL3AezGGNfvSl3ydvl8bXalRM/ij+AwMAAHAeOWcLAAAgAbEFAACQgNgCAABIQGwBAAAkILYAAAASEFsAAAAJiC0AAIAExBYAAEACYgsAACABsQUAAJCA2AIAAEhAbAEAACQgtgAAABIQWwAAAAmILQAAgATEFgAAQAJiCwAAIAGxBQAAkIDYAgAASEBsAQAAJCC2AAAAzruI/x82AUrG7ocrZgAAAABJRU5ErkJggg==;" vertex="1" parent="1">
          <mxGeometry x="120" y="430" width="534.17" height="370" as="geometry" />
        </mxCell>
        <mxCell id="_-OEPbXGlN3NO1fweHB8-10" value="" style="shape=image;html=1;verticalAlign=top;verticalLabelPosition=bottom;labelBackgroundColor=#ffffff;imageAspect=0;aspect=fixed;image=https://cdn2.iconfinder.com/data/icons/font-awesome/1792/qrcode-128.png" vertex="1" parent="1">
          <mxGeometry x="22" y="268" width="20" height="20" as="geometry" />
        </mxCell>
        <mxCell id="_-OEPbXGlN3NO1fweHB8-11" value="" style="shape=image;html=1;verticalAlign=top;verticalLabelPosition=bottom;labelBackgroundColor=#ffffff;imageAspect=0;aspect=fixed;image=https://cdn2.iconfinder.com/data/icons/font-awesome/1792/qrcode-128.png" vertex="1" parent="1">
          <mxGeometry x="22" y="297" width="20" height="20" as="geometry" />
        </mxCell>
        <mxCell id="_-OEPbXGlN3NO1fweHB8-12" value="" style="shape=image;html=1;verticalAlign=top;verticalLabelPosition=bottom;labelBackgroundColor=#ffffff;imageAspect=0;aspect=fixed;image=https://cdn2.iconfinder.com/data/icons/font-awesome/1792/qrcode-128.png" vertex="1" parent="1">
          <mxGeometry x="22" y="328" width="20" height="20" as="geometry" />
        </mxCell>
        <mxCell id="_-OEPbXGlN3NO1fweHB8-13" value="" style="shape=image;html=1;verticalAlign=top;verticalLabelPosition=bottom;labelBackgroundColor=#ffffff;imageAspect=0;aspect=fixed;image=https://cdn2.iconfinder.com/data/icons/font-awesome/1792/qrcode-128.png" vertex="1" parent="1">
          <mxGeometry x="22" y="358" width="20" height="20" as="geometry" />
        </mxCell>
        <mxCell id="_-OEPbXGlN3NO1fweHB8-14" value="" style="shape=image;html=1;verticalAlign=top;verticalLabelPosition=bottom;labelBackgroundColor=#ffffff;imageAspect=0;aspect=fixed;image=https://cdn2.iconfinder.com/data/icons/font-awesome/1792/qrcode-128.png" vertex="1" parent="1">
          <mxGeometry x="22" y="389" width="20" height="20" as="geometry" />
        </mxCell>
      </root>
    </mxGraphModel>
  </diagram>
</mxfile>
